<svg height="216" viewBox="0 0 216 216" width="216" xmlns="http://www.w3.org/2000/svg"><g><path d="m72 194.13-56 29.87 56 29.87z" fill="#57a4ff"/><path d="m440 253.87 56-29.87-56-29.87z" fill="#57a4ff"/><g fill="#004fac"><path d="m499.76 216.94-51.76-27.61v-173.33a8 8 0 0 0 -8-8h-368a8 8 0 0 0 -8 8v173.33l-51.76 27.61a8.005 8.005 0 0 0 -4.24 7.06v272a8 8 0 0 0 8 8h480a8 8 0 0 0 8-8v-272a8.005 8.005 0 0 0 -4.24-7.06zm-51.76-9.48 31 16.54-31 16.54zm-368-183.46h352v225.07l-176 93.86-176-93.86zm-16 183.46v33.08l-31-16.54zm-40 280.54v-250.67l141.47 75.46-129.51 175.21zm31.86 0 123.88-167.6 72.5 38.66a7.99 7.99 0 0 0 7.52 0l72.5-38.66 123.88 167.6zm432.14 0h-11.96l-129.51-175.21 141.47-75.46z"/><path d="m152 160a104.118 104.118 0 0 0 104 104 8 8 0 0 0 0-16 88 88 0 1 1 88-88v16c0 3.146-4.474 24-24 24-12.035 0-15.977-26.954-16-40.007v-.006c-.006-30.872-21.537-55.987-48-55.987s-48 25.122-48 56 21.533 56 48 56c15.372 0 29.069-8.484 37.86-21.638 6.754 17.645 17.659 21.638 26.14 21.638 27.921 0 40-26.488 40-40v-16a104 104 0 0 0 -208 0zm104 40c-17.645 0-32-17.944-32-40s14.355-40 32-40 32 17.944 32 40-14.355 40-32 40z"/><path d="m96 48h64a8 8 0 0 0 0-16h-64a8 8 0 0 0 0 16z"/><path d="m184 48h8a8 8 0 0 0 0-16h-8a8 8 0 0 0 0 16z"/></g></g></svg>