<svg width="32" height="13" xmlns="http://www.w3.org/2000/svg" xmlns:xlink="http://www.w3.org/1999/xlink" overflow="hidden"><defs><clipPath id="clip0"><rect x="1419" y="481" width="32" height="13"/></clipPath></defs><g clip-path="url(#clip0)" transform="translate(-1419 -481)"><rect x="1419" y="482" width="4.00012" height="2.00006" fill="#9DC3E6"/><rect x="1419" y="484" width="4.00012" height="2.00006" fill="#9DC3E6"/><rect x="1419" y="487" width="4.00012" height="2.00006" fill="#9DC3E6"/><rect x="1419" y="490" width="4.00012" height="2.00006" fill="#9DC3E6"/><rect x="1423" y="482" width="3.99976" height="2.00006" fill="#9DC3E6"/><rect x="1428" y="482" width="4.00012" height="2.00006" fill="#9DC3E6"/><rect x="1428" y="484" width="4.00012" height="2.00006" fill="#9DC3E6"/><rect x="1428" y="487" width="4.00012" height="2.00006" fill="#9DC3E6"/><rect x="1423" y="487" width="3.99976" height="2.00006" fill="#9DC3E6"/><rect x="1419" y="492" width="4.00012" height="2.00006" fill="#9DC3E6"/><rect x="1433" y="482" width="3.99976" height="2.00006" fill="#A9D18E"/><rect x="1433" y="484" width="3.99976" height="2.00006" fill="#A9D18E"/><rect x="1433" y="487" width="3.99976" height="2.00006" fill="#A9D18E"/><rect x="1433" y="490" width="3.99976" height="2.00006" fill="#A9D18E"/><rect x="1433" y="492" width="3.99976" height="2.00006" fill="#A9D18E"/><rect x="1437" y="484" width="4.00012" height="2.00006" fill="#A9D18E"/><rect x="1441" y="487" width="3.00012" height="2.00006" fill="#A9D18E"/><rect x="1444" y="490" width="3.99976" height="2.00006" fill="#A9D18E"/><rect x="1448" y="492" width="3.00012" height="2.00006" fill="#A9D18E"/><rect x="1448" y="490" width="3.00012" height="2.00006" fill="#A9D18E"/><rect x="1448" y="487" width="3.00012" height="2.00006" fill="#A9D18E"/><rect x="1448" y="484" width="3.00012" height="2.00006" fill="#A9D18E"/><rect x="1448" y="481" width="3.00012" height="3.00009" fill="#A9D18E"/></g></svg>