<svg width="985" height="602" xmlns="http://www.w3.org/2000/svg" xmlns:xlink="http://www.w3.org/1999/xlink" overflow="hidden"><defs><clipPath id="clip0"><rect x="1293" y="481" width="985" height="602"/></clipPath></defs><g clip-path="url(#clip0)" transform="translate(-1293 -481)"><rect x="1293" y="483" width="111" height="102" fill="#9DC3E6"/><rect x="1293" y="607" width="111" height="102" fill="#9DC3E6"/><rect x="1293" y="732" width="111" height="102" fill="#9DC3E6"/><rect x="1293" y="856" width="111" height="102" fill="#9DC3E6"/><rect x="1427" y="483" width="111" height="102" fill="#9DC3E6"/><rect x="1561" y="483" width="111" height="102" fill="#9DC3E6"/><rect x="1561" y="606" width="111" height="102" fill="#9DC3E6"/><rect x="1561" y="729" width="111" height="102" fill="#9DC3E6"/><rect x="1427" y="729" width="111" height="102" fill="#9DC3E6"/><rect x="1293" y="981" width="111" height="102" fill="#9DC3E6"/><rect x="1723" y="483" width="111" height="102" fill="#A9D18E"/><rect x="1723" y="607" width="111" height="102" fill="#A9D18E"/><rect x="1723" y="732" width="111" height="102" fill="#A9D18E"/><rect x="1723" y="856" width="111" height="102" fill="#A9D18E"/><rect x="1723" y="981" width="111" height="102" fill="#A9D18E"/><rect x="1834" y="607" width="111" height="102" fill="#A9D18E"/><rect x="1945" y="732" width="111" height="102" fill="#A9D18E"/><rect x="2056" y="856" width="111" height="102" fill="#A9D18E"/><rect x="2167" y="981" width="111" height="102" fill="#A9D18E"/><rect x="2167" y="856" width="111" height="102" fill="#A9D18E"/><rect x="2167" y="731" width="111" height="102" fill="#A9D18E"/><rect x="2167" y="606" width="111" height="102" fill="#A9D18E"/><rect x="2167" y="481" width="111" height="102" fill="#A9D18E"/></g></svg>